<?xml version="1.0" encoding="UTF-8" standalone="no"?>
<!-- Created with Inkscape (http://www.inkscape.org/) -->

<svg
   width="30.200974mm"
   height="30.150852mm"
   viewBox="0 0 30.200974 30.150852"
   version="1.1"
   id="svg1"
   xml:space="preserve"
   inkscape:version="1.4.2 (f4327f4, 2025-05-13)"
   sodipodi:docname="Logo_No_Text1.svg"
   xmlns:inkscape="http://www.inkscape.org/namespaces/inkscape"
   xmlns:sodipodi="http://sodipodi.sourceforge.net/DTD/sodipodi-0.dtd"
   xmlns="http://www.w3.org/2000/svg"
   xmlns:svg="http://www.w3.org/2000/svg"><path
     id="path1"
     style="fill:#ffffff;fill-opacity:1;stroke:none;stroke-width:0.4"
     d="M 14.271484,0.03515657 C 8.7099602,0.29940919 3.4509884,3.9108911 1.28557,9.0548039 -0.85406774,13.798664 -0.23424754,19.620152 2.8244306,23.825504 6.0383126,28.446989 11.996102,30.900552 17.535156,29.947266 23.020352,29.099424 27.833809,24.972543 29.466042,19.661565 31.132557,14.597088 29.827978,8.702723 26.14915,4.8374539 23.15484,1.561423 18.6939,-0.20324665 14.271484,0.03515657 Z" /><sodipodi:namedview
     id="namedview1"
     pagecolor="#ffffff"
     bordercolor="#000000"
     borderopacity="0.25"
     inkscape:showpageshadow="2"
     inkscape:pageopacity="0.0"
     inkscape:pagecheckerboard="0"
     inkscape:deskcolor="#d1d1d1"
     inkscape:document-units="mm"
     inkscape:zoom="2.8284271"
     inkscape:cx="41.365747"
     inkscape:cy="70.710678"
     inkscape:window-width="1280"
     inkscape:window-height="730"
     inkscape:window-x="1913"
     inkscape:window-y="-6"
     inkscape:window-maximized="1"
     inkscape:current-layer="g47" /><defs
     id="defs1"><rect
       x="258.86987"
       y="348.95721"
       width="58.974613"
       height="24.57196"
       id="rect41" /><rect
       x="222.73865"
       y="342.23969"
       width="105.31411"
       height="48.967144"
       id="rect39" /><rect
       x="208.95004"
       y="356.38181"
       width="223.54579"
       height="15.733126"
       id="rect38" /><inkscape:path-effect
       effect="fillet_chamfer"
       id="path-effect7"
       is_visible="true"
       lpeversion="1"
       nodesatellites_param="F,0,0,1,0,0,0,1 @ F,0,0,1,0,3.3717615,0,1 @ F,0,0,1,0,0,0,1"
       radius="0"
       unit="px"
       method="auto"
       mode="F"
       chamfer_steps="1"
       flexible="false"
       use_knot_distance="true"
       apply_no_radius="true"
       apply_with_radius="true"
       only_selected="false"
       hide_knots="false" /><rect
       x="84.593178"
       y="140.31496"
       width="108.85495"
       height="27.711433"
       id="rect6" /><inkscape:path-effect
       effect="fillet_chamfer"
       id="path-effect6"
       is_visible="true"
       lpeversion="1"
       nodesatellites_param="F,0,0,1,0,0,0,1 @ F,0,0,1,0,1.34974,0,1 @ F,0,0,1,0,0,0,1"
       radius="0"
       unit="px"
       method="auto"
       mode="F"
       chamfer_steps="1"
       flexible="false"
       use_knot_distance="true"
       apply_no_radius="true"
       apply_with_radius="true"
       only_selected="false"
       hide_knots="false" /><inkscape:path-effect
       effect="fillet_chamfer"
       id="path-effect5"
       is_visible="true"
       lpeversion="1"
       nodesatellites_param="F,0,0,1,0,0,0,1 @ F,0,0,1,0,2.2770863,0,1 @ F,0,0,1,0,5.6981778,0,1 @ F,0,0,1,0,0,0,1"
       radius="0"
       unit="px"
       method="auto"
       mode="F"
       chamfer_steps="1"
       flexible="false"
       use_knot_distance="true"
       apply_no_radius="true"
       apply_with_radius="true"
       only_selected="false"
       hide_knots="false" /><inkscape:path-effect
       effect="fillet_chamfer"
       id="path-effect5-8"
       is_visible="true"
       lpeversion="1"
       nodesatellites_param="F,0,0,1,0,0,0,1 @ F,0,0,1,0,2.2770863,0,1 @ F,0,0,1,0,5.6981778,0,1 @ F,0,0,1,0,0,0,1"
       radius="0"
       unit="px"
       method="auto"
       mode="F"
       chamfer_steps="1"
       flexible="false"
       use_knot_distance="true"
       apply_no_radius="true"
       apply_with_radius="true"
       only_selected="false"
       hide_knots="false" /><inkscape:path-effect
       effect="fillet_chamfer"
       id="path-effect6-9"
       is_visible="true"
       lpeversion="1"
       nodesatellites_param="F,0,0,1,0,0,0,1 @ F,0,0,1,0,1.34974,0,1 @ F,0,0,1,0,0,0,1"
       radius="0"
       unit="px"
       method="auto"
       mode="F"
       chamfer_steps="1"
       flexible="false"
       use_knot_distance="true"
       apply_no_radius="true"
       apply_with_radius="true"
       only_selected="false"
       hide_knots="false" /><inkscape:path-effect
       effect="fillet_chamfer"
       id="path-effect7-2"
       is_visible="true"
       lpeversion="1"
       nodesatellites_param="F,0,0,1,0,0,0,1 @ F,0,0,1,0,3.3717615,0,1 @ F,0,0,1,0,0,0,1"
       radius="0"
       unit="px"
       method="auto"
       mode="F"
       chamfer_steps="1"
       flexible="false"
       use_knot_distance="true"
       apply_no_radius="true"
       apply_with_radius="true"
       only_selected="false"
       hide_knots="false" /><inkscape:path-effect
       effect="fillet_chamfer"
       id="path-effect5-87"
       is_visible="true"
       lpeversion="1"
       nodesatellites_param="F,0,0,1,0,0,0,1 @ F,0,0,1,0,2.2770863,0,1 @ F,0,0,1,0,5.6981778,0,1 @ F,0,0,1,0,0,0,1"
       radius="0"
       unit="px"
       method="auto"
       mode="F"
       chamfer_steps="1"
       flexible="false"
       use_knot_distance="true"
       apply_no_radius="true"
       apply_with_radius="true"
       only_selected="false"
       hide_knots="false" /><inkscape:path-effect
       effect="fillet_chamfer"
       id="path-effect6-4"
       is_visible="true"
       lpeversion="1"
       nodesatellites_param="F,0,0,1,0,0,0,1 @ F,0,0,1,0,1.34974,0,1 @ F,0,0,1,0,0,0,1"
       radius="0"
       unit="px"
       method="auto"
       mode="F"
       chamfer_steps="1"
       flexible="false"
       use_knot_distance="true"
       apply_no_radius="true"
       apply_with_radius="true"
       only_selected="false"
       hide_knots="false" /><inkscape:path-effect
       effect="fillet_chamfer"
       id="path-effect7-27"
       is_visible="true"
       lpeversion="1"
       nodesatellites_param="F,0,0,1,0,0,0,1 @ F,0,0,1,0,3.3717615,0,1 @ F,0,0,1,0,0,0,1"
       radius="0"
       unit="px"
       method="auto"
       mode="F"
       chamfer_steps="1"
       flexible="false"
       use_knot_distance="true"
       apply_no_radius="true"
       apply_with_radius="true"
       only_selected="false"
       hide_knots="false" /></defs><g
     inkscape:label="Layer 1"
     inkscape:groupmode="layer"
     id="layer1"
     transform="translate(-47.712892,-55.555303)" /><text
     xml:space="preserve"
     transform="matrix(0.26458333,0,0,0.26458333,-47.712892,-55.555303)"
     id="text6"
     style="text-align:start;writing-mode:lr-tb;direction:ltr;white-space:pre;shape-inside:url(#rect6);display:inline;fill:none;stroke:#000000;stroke-width:1.51181;stroke-dasharray:none;stroke-opacity:1" /><text
     xml:space="preserve"
     transform="matrix(0.26458333,0,0,0.26458333,-53.533725,-63.319332)"
     id="text41"
     style="font-style:normal;font-variant:normal;font-weight:bold;font-stretch:normal;font-size:18.6667px;font-family:Bahnschrift;-inkscape-font-specification:'Bahnschrift Bold';text-align:center;writing-mode:lr-tb;direction:ltr;white-space:pre;shape-inside:url(#rect41);display:inline;fill:#5757fd;fill-opacity:1;stroke:none;stroke-width:1.51181;stroke-dasharray:none;stroke-opacity:1" /><g
     id="g47"
     transform="translate(-72.642962,-57.303105)"><g
       id="g44"
       transform="translate(-2.5611937,-1.2628489)"><path
         style="fill:#d38d5f;fill-opacity:1;stroke:none;stroke-width:0.287498;stroke-dasharray:none;stroke-opacity:1"
         d="m 80.639845,85.126108 c 0,0 3.204266,-1.572218 4.825509,-2.317669 1.04199,-0.479109 2.059815,-1.027533 3.149654,-1.38466 0.441637,-0.144718 0.89943,-0.247923 1.360889,-0.30308 0.523291,-0.06255 1.055812,-0.07626 1.580769,-0.02971 0.446565,0.0396 0.889198,0.13495 1.319289,0.261481 0.899176,0.264532 1.751119,0.669982 2.614808,1.034037 0.982117,0.413975 1.945105,0.871945 2.917888,1.307404 0.713016,0.319177 2.139389,0.956778 2.139389,0.956778 0,0 -0.555129,0.512775 -0.849814,0.748787 -0.4472,0.358161 -0.906408,0.703958 -1.390602,1.010266 -0.558868,0.353546 -1.142142,0.670792 -1.741224,0.950844 -0.578504,0.270435 -1.173707,0.509468 -1.782824,0.701243 -0.56736,0.17863 -1.149284,0.313948 -1.735281,0.415988 -0.571324,0.09949 -1.150231,0.15946 -1.729339,0.190172 -0.603335,0.03199 -1.209538,0.03134 -1.812536,-0.0065 -0.63537,-0.03982 -1.269555,-0.116976 -1.895736,-0.231774 C 86.900412,88.2995 86.188963,88.149987 85.506953,87.912701 84.669744,87.621415 83.86736,87.230152 83.088256,86.807351 82.545841,86.512996 82.02993,86.170184 81.525314,85.814908 81.219546,85.599632 80.639845,85.126079 80.639845,85.126079 Z"
         id="path27-7"
         sodipodi:nodetypes="caaaaaaacaaaaaaaaaaac" /><path
         style="fill:#6a3818;fill-opacity:1;stroke:none;stroke-width:0.287498;stroke-dasharray:none;stroke-opacity:1"
         d="m 75.343372,75.907059 c 0,0 2.113213,-1.284932 3.210444,-1.853152 0.742413,-0.384472 1.478723,-0.803882 2.27757,-1.050538 0.40309,-0.124461 0.826278,-0.200642 1.248039,-0.210107 0.426073,-0.0096 0.859541,0.03745 1.269051,0.155479 0.693012,0.199742 1.321343,0.581787 1.958204,0.920272 0.470913,0.250285 0.922053,0.536487 1.374104,0.819419 0.72713,0.455101 1.414942,0.972254 2.151504,1.411924 0.455278,0.271766 0.924948,0.519516 1.399318,0.756389 0.561299,0.280282 1.120675,0.57136 1.710276,0.785802 0.798352,0.290366 1.628541,0.490023 2.458261,0.672346 0.937653,0.20604 1.88713,0.36335 2.840657,0.474843 1.388807,0.162389 2.7883,0.223125 4.18535,0.281544 0.93778,0.03921 2.81544,0.04622 2.81544,0.04622 0,0 -0.05,0.181392 -0.084,0.26894 -0.24029,0.618563 -0.5202,1.223848 -0.84464,1.802724 -0.29706,0.530032 -0.64221,1.033262 -1.00431,1.521179 -0.31476,0.424128 -1.01272,1.218626 -1.01272,1.218626 0,0 -1.810414,-0.847808 -2.718793,-1.26485 -0.996418,-0.457462 -1.991034,-0.919242 -2.996136,-1.357296 -0.634823,-0.276676 -1.257684,-0.588303 -1.916182,-0.802611 -0.548898,-0.178639 -1.113915,-0.3156 -1.685064,-0.399204 -0.358179,-0.05243 -0.722214,-0.06925 -1.084156,-0.06303 -0.576671,0.0099 -1.160361,0.03234 -1.722884,0.159681 -0.861853,0.195106 -1.675007,0.569043 -2.487674,0.916071 -0.927552,0.396085 -1.814312,0.881623 -2.718795,1.327879 -0.864559,0.426558 -1.728198,0.855036 -2.588527,1.290062 -0.487489,0.246501 -1.458148,0.747984 -1.458148,0.747984 0,0 -0.786496,-0.801622 -1.14719,-1.23123 -0.331812,-0.395208 -0.641999,-0.809206 -0.93288,-1.235437 -0.360483,-0.528221 -0.715258,-1.064189 -1.004315,-1.634637 -0.322027,-0.635516 -0.577611,-1.304643 -0.806813,-1.979216 -0.204213,-0.601027 -0.336375,-1.224172 -0.504259,-1.836342 -0.0603,-0.219892 -0.180692,-0.659734 -0.180692,-0.659734 z"
         id="path26-8"
         sodipodi:nodetypes="caaaaaaaaaaaacaaacaaaaaaaaacaaaaac" /><path
         style="fill:#098cd7;fill-opacity:1;stroke:none;stroke-width:0.287498;stroke-dasharray:none;stroke-opacity:1"
         d="m 75.208177,74.666879 c 0,0 -0.0338,-2.022251 0.09459,-3.021798 0.127228,-0.990506 0.353215,-1.972579 0.666083,-2.920947 0.308293,-0.9345 0.69122,-1.852686 1.18517,-2.703773 0.521404,-0.898391 1.166776,-1.726282 1.857515,-2.50207 0.682602,-0.766648 1.421677,-1.494519 2.243823,-2.109149 0.839023,-0.627247 1.761763,-1.147195 2.712426,-1.587238 0.854297,-0.395438 1.745854,-0.73081 2.664739,-0.93537 1.013668,-0.225661 2.061534,-0.28795 3.099723,-0.312607 1.068856,-0.02538 2.146718,0.0043 3.202964,0.169981 1.044729,0.163848 2.084615,0.419377 3.067406,0.809797 0.812367,0.322718 1.573804,0.771938 2.30364,1.253005 0.684852,0.451416 1.324778,0.972436 1.932764,1.523032 0.71577,0.648214 1.41682,1.324425 2.00914,2.087098 0.55846,0.719072 1.01074,1.518247 1.43765,2.322418 0.3402,0.640846 0.6564,1.299345 0.89106,1.985896 0.22398,0.655298 0.35465,1.339886 0.48766,2.019514 0.14632,0.747692 0.3406,2.260107 0.3406,2.260107 0,0 -0.93649,-0.530556 -1.92586,-1.069089 -0.63418,-0.345197 -1.26534,-0.693673 -1.76693,-0.907794 -1.05228,-0.449201 -2.121162,-0.993854 -3.263108,-1.064783 -1.23887,-0.07695 -2.502662,0.248884 -3.655807,0.708206 -1.142962,0.455266 -2.286425,1.2008 -3.434062,1.79267 -1.1809,0.609025 -3.551721,1.809479 -3.551721,1.809479 0,0 -2.44438,-1.662436 -3.816087,-2.173851 -0.495785,-0.184844 -1.028259,-0.288855 -1.556997,-0.309023 -0.630022,-0.02403 -1.270929,0.0553 -1.877909,0.225825 -0.863653,0.242639 -1.654193,0.700118 -2.448411,1.117236 -0.915536,0.480832 -2.66235,1.592656 -2.66235,1.592656 l -0.224338,0.13371 z"
         id="path24-8"
         sodipodi:nodetypes="caaaaaaaaaaaaaaaacssasacaaaaccc" /><path
         style="fill:#9c5723;fill-opacity:1;stroke:none;stroke-width:0.287498;stroke-dasharray:none;stroke-opacity:1"
         d="m 88.655797,74.818699 c 0,0 2.252699,-1.105852 3.37433,-1.668254 0.994529,-0.498673 1.948711,-1.083552 2.975126,-1.512776 0.649759,-0.271714 1.310935,-0.545327 2.004428,-0.668143 0.4788,-0.08479 0.976034,-0.105318 1.458147,-0.04202 0.510144,0.06697 0.996456,0.263097 1.479158,0.441226 0.619504,0.22861 1.217904,0.512575 1.811134,0.802613 1.21662,0.594824 3.58023,1.920384 3.58023,1.920384 0,0 -0.0627,0.986514 -0.13447,1.474955 -0.0776,0.527534 -0.19697,1.048439 -0.31936,1.567405 -0.0769,0.326072 -0.26054,0.970696 -0.26054,0.970696 0,0 -2.40683,-0.07691 -3.60965,-0.130266 -0.8786,-0.03897 -1.7583,-0.06586 -2.634747,-0.138671 -0.976404,-0.08111 -1.957077,-0.153733 -2.920496,-0.33197 -0.953089,-0.176326 -1.897343,-0.416235 -2.815444,-0.726974 -0.858544,-0.29058 -1.697413,-0.646428 -2.504486,-1.058941 -0.514863,-0.263158 -1.48336,-0.899262 -1.48336,-0.899262 z"
         id="path25-2"
         sodipodi:nodetypes="caaaaaacaacaaaaac" /><g
         id="g34"
         transform="translate(22.853021,-36.1417)"><g
           id="g35"
           transform="translate(-14.102652,-0.50838472)"><ellipse
             style="fill:#ffffff;fill-opacity:1;stroke:none;stroke-width:0.36502;stroke-dasharray:none;stroke-opacity:1"
             id="path34"
             cx="77.01786"
             cy="103.38934"
             rx="3.5262744"
             ry="3.5011508" /><path
             style="fill:#f7cb50;fill-opacity:1;stroke:none;stroke-width:0.180995;stroke-dasharray:none;stroke-opacity:1"
             d="m 75.70338,106.61729 0.01497,-2.42435 -0.471402,-0.44521 c 0,0 -0.06786,0.0368 -0.104795,0.0466 -0.09108,0.0244 -0.206807,0.0284 -0.304101,0.004 -0.111073,-0.0279 -0.209649,-0.1045 -0.286984,-0.18902 -0.07459,-0.0815 -0.133211,-0.18398 -0.157134,-0.29183 -0.02353,-0.1061 -0.01555,-0.22235 0.01871,-0.3255 0.02638,-0.0794 0.07841,-0.15116 0.138428,-0.2095 0.08917,-0.0866 0.197085,-0.16375 0.31699,-0.19674 0.102555,-0.0282 0.216014,-0.0206 0.319028,0.006 0.0778,0.0199 0.150805,0.0617 0.213254,0.11226 0.07572,0.0613 0.150007,0.1344 0.187063,0.22447 0.04429,0.1077 0.04309,0.23228 0.02994,0.34794 -0.0096,0.0847 -0.07857,0.24318 -0.07857,0.24318 l 0.497591,0.52753 0.0038,2.70121 0.535005,0.10844 0.0112,-4.82251 c 0,0 -0.23903,-0.0928 -0.318009,-0.18706 -0.0897,-0.10709 -0.13884,-0.25334 -0.14591,-0.39284 -0.0065,-0.12869 0.026,-0.26678 0.09728,-0.37414 0.07381,-0.11114 0.192336,-0.1983 0.318008,-0.24317 0.127399,-0.0455 0.275124,-0.0491 0.405609,-0.0134 0.102088,0.0279 0.194998,0.0937 0.267824,0.17055 0.06109,0.0644 0.105337,0.14694 0.130944,0.23196 0.03029,0.10056 0.03898,0.21055 0.02245,0.31427 -0.0161,0.10106 -0.04986,0.2062 -0.115984,0.28433 -0.08428,0.0996 -0.332974,0.20578 -0.332974,0.20578 l 0.0075,4.85992 0.538746,-0.0224 0.0037,-3.41579 0.774446,-0.77819 c 0,0 -0.110137,-0.10351 -0.134667,-0.1721 -0.03655,-0.10216 -0.02771,-0.21887 -0.0075,-0.32549 0.01739,-0.0917 0.04879,-0.1864 0.108501,-0.25814 0.08872,-0.1066 0.213348,-0.1947 0.34794,-0.22823 0.131253,-0.0327 0.277768,-0.0111 0.404058,0.0374 0.0882,0.0339 0.166718,0.0967 0.227283,0.16929 0.06429,0.0769 0.123255,0.16055 0.143746,0.26119 0.02445,0.12001 0.01441,0.24749 -0.02309,0.36267 -0.03384,0.10401 -0.09469,0.2036 -0.17584,0.27686 -0.07658,0.0692 -0.176135,0.11607 -0.276855,0.13842 -0.09255,0.0206 -0.192356,0.0155 -0.284338,-0.007 -0.03247,-0.009 -0.08979,-0.0449 -0.08979,-0.0449 l -0.658466,0.68839 -0.01871,3.23622 c 0,0 0.369191,-0.0864 0.542486,-0.16088 0.240756,-0.10339 0.467995,-0.2401 0.680914,-0.39284 0.234789,-0.16842 0.462097,-0.35375 0.650983,-0.57241 0.224613,-0.26003 0.412569,-0.55491 0.560925,-0.86484 0.105361,-0.2201 0.169127,-0.45991 0.228552,-0.69547 0.04229,-0.16766 0.06117,-0.31586 0.07801,-0.47632 0.02424,-0.23099 0.009,-0.47608 -0.01448,-0.70574 -0.02846,-0.27812 -0.119369,-0.54906 -0.224478,-0.80812 -0.121277,-0.2989 -0.272256,-0.5898 -0.463918,-0.84926 -0.16244,-0.2199 -0.361792,-0.41309 -0.572418,-0.58739 -0.214249,-0.17729 -0.446882,-0.33634 -0.695878,-0.46018 -0.228493,-0.11364 -0.474361,-0.19305 -0.722068,-0.254403 -0.173764,-0.04304 -0.352687,-0.06606 -0.531263,-0.07857 -0.238864,-0.01673 -0.480319,-0.02122 -0.718326,0.005 -0.197827,0.02179 -0.393853,0.066 -0.583641,0.125923 -0.272336,0.086 -0.542106,0.19014 -0.789411,0.33297 -0.223547,0.12911 -0.426491,0.29379 -0.617312,0.46766 -0.162466,0.14803 -0.317964,0.30716 -0.445213,0.48637 -0.172182,0.24247 -0.307723,0.51142 -0.422766,0.78567 -0.0798,0.19024 -0.13744,0.38999 -0.183323,0.59112 -0.02635,0.11557 -0.04362,0.23348 -0.05237,0.35168 -0.01759,0.23754 -0.02404,0.47761 0,0.71458 0.02068,0.20391 0.06333,0.40642 0.123463,0.60235 0.08399,0.27366 0.189567,0.54329 0.329233,0.79315 0.124633,0.22299 0.274596,0.43437 0.448954,0.62106 0.191603,0.20515 0.413217,0.38373 0.647243,0.53875 0.152055,0.10068 0.317314,0.1822 0.486367,0.25066 0.05192,0.021 0.160832,0.0486 0.160832,0.0486 z"
             id="path28"
             sodipodi:nodetypes="cccssaaaaaaaaacccccaaaaaaaaacccccaaaaassaaaacccaaaasssaaaaaaaaaaaaaaaaaaaacc" /><circle
             style="fill:#f7cb50;fill-opacity:1;stroke:none;stroke-width:0.180995;stroke-dasharray:none;stroke-opacity:1"
             id="path29"
             cx="74.992783"
             cy="103.18976"
             r="0.2804217" /><ellipse
             style="fill:#f7cb50;fill-opacity:1;stroke:none;stroke-width:0.180995;stroke-dasharray:none;stroke-opacity:1"
             id="path30"
             cx="76.754677"
             cy="101.42258"
             rx="0.29492313"
             ry="0.29100367" /><circle
             style="fill:#f7cb50;fill-opacity:1;stroke:none;stroke-width:0.180995;stroke-dasharray:none;stroke-opacity:1"
             id="path31"
             cx="78.707054"
             cy="102.29559"
             r="0.29629463" /></g></g></g></g></svg>
